<?xml version="1.0" encoding="UTF-8"?>
<svg version="1.1" xmlns="http://www.w3.org/2000/svg" width="1974" height="1075">
<path d="M0 0 C651.42 0 1302.84 0 1974 0 C1974 354.75 1974 709.5 1974 1075 C1322.58 1075 671.16 1075 0 1075 C0 720.25 0 365.5 0 0 Z " fill="#FEFEFE" transform="translate(0,0)"/>
<path d="M0 0 C12.90182572 7.64157722 22.12129003 18.90583526 26.0859375 33.4921875 C26.62664203 36.58894983 26.93796516 39.37171203 27.0859375 42.4921875 C27.15039062 43.77738281 27.21484375 45.06257813 27.28125 46.38671875 C27.89415557 64.37211502 21.77384097 79.80207358 10.0859375 93.4921875 C9.51488281 94.20761719 8.94382812 94.92304688 8.35546875 95.66015625 C3.47466578 101.54001484 -2.15562937 105.98274492 -8.1875 110.59375 C-11.96160384 113.49310088 -15.57044867 116.5610266 -19.1640625 119.6796875 C-23.72993637 123.63278453 -28.34540577 127.48670446 -33.0859375 131.23046875 C-36.91856155 134.29550926 -40.69471375 137.42735811 -44.4765625 140.5546875 C-50.21626561 145.29716429 -55.97898591 149.99438017 -61.9140625 154.4921875 C-38.39221039 144.78475647 -16.01805651 132.26633627 6.46484375 120.40234375 C7.0902002 120.07250488 7.71555664 119.74266602 8.35986328 119.40283203 C9.92380674 118.57772466 11.48731903 117.75180015 13.05078125 116.92578125 C24.50861745 111.01148984 34.45140612 108.30130926 47.2734375 108.2421875 C48.37236328 108.2215625 49.47128906 108.2009375 50.60351562 108.1796875 C63.0088415 108.12050884 72.89293606 111.86307336 82.12890625 120.375 C93.12020855 132.36110008 97.76993578 146.04546853 97.421875 162.15234375 C96.79020437 173.8486913 91.62182043 183.72447755 84.0859375 192.4921875 C83.51875 193.15863281 82.9515625 193.82507813 82.3671875 194.51171875 C74.95286318 202.53807456 65.09486178 206.60556055 55.0859375 210.4921875 C55.47265625 211.08644531 55.859375 211.68070313 56.2578125 212.29296875 C64.37784349 225.21668143 68.70503359 239.22766718 65.28515625 254.5078125 C61.42278427 269.19653019 52.92702716 281.39143819 39.91015625 289.4609375 C27.58924156 296.39589294 13.86385303 299.18159018 -0.1015625 295.4296875 C-1.72568895 294.83583174 -3.32908173 294.18377072 -4.9140625 293.4921875 C-6.01234375 293.01652344 -7.110625 292.54085938 -8.2421875 292.05078125 C-25.28423916 284.10151256 -37.29512989 271.77415658 -44.9140625 254.4921875 C-48.10708532 245.69795 -50.16818549 236.66838468 -51.9140625 227.4921875 C-51.98399414 228.30147705 -52.05392578 229.1107666 -52.12597656 229.94458008 C-53.51239147 245.65765383 -54.90537971 261.19056177 -58.9140625 276.4921875 C-59.1404541 277.37406738 -59.3668457 278.25594727 -59.60009766 279.16455078 C-69.11100463 315.56966601 -85.53888628 348.46047128 -104.9140625 380.4921875 C-108.28868965 379.94495067 -109.9964125 379.4372875 -112.9140625 377.4921875 C-111.58302582 373.97338198 -110.02823395 370.76145919 -108.15625 367.5 C-107.61677734 366.55479492 -107.07730469 365.60958984 -106.52148438 364.63574219 C-105.94978516 363.63961914 -105.37808594 362.64349609 -104.7890625 361.6171875 C-95.93235857 346.05692541 -87.47228649 330.65238912 -81.22265625 313.828125 C-80.22149625 311.27591414 -79.15680285 308.82226214 -78.01171875 306.3359375 C-71.13228468 290.98566668 -66.6116197 274.07758533 -63.9140625 257.4921875 C-63.73818604 256.49356689 -63.56230957 255.49494629 -63.38110352 254.46606445 C-61.6404491 243.39135389 -61.57581824 232.3958682 -61.59838867 221.20678711 C-61.60153336 217.95977678 -61.57806426 214.71369433 -61.55273438 211.46679688 C-61.50835095 196.42110135 -62.0783499 181.12828606 -65.9140625 166.4921875 C-65.96828369 167.09836914 -66.02250488 167.70455078 -66.07836914 168.32910156 C-67.95986508 188.82937308 -70.68369607 209.19730929 -73.48852539 229.58886719 C-73.64014633 230.6942836 -73.79176727 231.79970001 -73.94798279 232.93861389 C-74.2335136 235.01670218 -74.52078837 237.09455195 -74.81019592 239.17210388 C-75.55154404 244.55655548 -76.18651809 249.93140806 -76.6599884 255.34640503 C-78.13869076 267.83478395 -85.25002202 278.81106404 -94.6640625 286.8046875 C-107.49377605 296.40233803 -120.01735622 299.82628924 -135.9140625 298.4921875 C-150.73126823 295.26829386 -162.9017039 287.76796858 -171.9140625 275.4921875 C-177.30762033 266.31955145 -180.29592095 257.88604238 -180.2265625 247.2421875 C-180.22454834 246.40824463 -180.22253418 245.57430176 -180.22045898 244.71508789 C-180.10515327 237.59996611 -179.12857048 230.92120346 -175.9140625 224.4921875 C-176.49671875 224.52699219 -177.079375 224.56179688 -177.6796875 224.59765625 C-191.63143494 225.05832716 -204.62343908 220.3214127 -215.2265625 211.2421875 C-226.76159657 200.16929422 -232.74734563 187.09406788 -233.25756836 171.13671875 C-233.45714792 156.75461311 -229.08039743 145.21736654 -219.14453125 134.6015625 C-204.25593599 120.68464399 -187.76631349 115.86265042 -168.015625 116.15625 C-150.35178983 116.82104753 -133.8968224 125.2610021 -118.171875 132.66015625 C-108.35632789 137.26973657 -98.41215676 141.58683342 -88.4765625 145.9296875 C-86.56958948 146.76480961 -84.66268797 147.60009505 -82.75585938 148.43554688 C-78.14274718 150.45630586 -73.52868058 152.47486987 -68.9140625 154.4921875 C-70.85442453 152.55182547 -73.35386919 151.20630202 -75.640625 149.71484375 C-76.89458028 148.89542007 -78.14848386 148.07591728 -79.40234375 147.25634766 C-80.07475098 146.81736145 -80.7471582 146.37837524 -81.43994141 145.92608643 C-94.43273575 137.43762702 -107.3983397 128.90677427 -120.33172607 120.32809448 C-122.04162524 119.19521404 -123.75291236 118.06442547 -125.46563721 116.93582153 C-127.88973482 115.33785293 -130.3086662 113.73233154 -132.7265625 112.125 C-133.43686615 111.65900894 -134.1471698 111.19301788 -134.8789978 110.71290588 C-142.73195649 105.4667329 -149.29986822 99.75955725 -154.5390625 91.8671875 C-155.00562256 91.17713623 -155.47218262 90.48708496 -155.95288086 89.77612305 C-160.00610139 83.63879225 -163.15192157 77.31573427 -165.9140625 70.4921875 C-166.28789063 69.70585937 -166.66171875 68.91953125 -167.046875 68.109375 C-168.18692886 64.66867189 -168.25621056 61.39040823 -168.2265625 57.8046875 C-168.22092285 57.09425293 -168.2152832 56.38381836 -168.20947266 55.65185547 C-167.8715744 40.93488085 -160.37835418 29.49024837 -149.9140625 19.4921875 C-147.03847418 17.23821976 -144.08108221 15.3088336 -140.9140625 13.4921875 C-139.9653125 12.9353125 -139.0165625 12.3784375 -138.0390625 11.8046875 C-124.91455846 6.2923958 -111.35026822 5.4846861 -97.87890625 10.23046875 C-88.90650842 14.0487619 -81.76878431 19.63746569 -74.9140625 26.4921875 C-74.56214844 25.7909375 -74.21023438 25.0896875 -73.84765625 24.3671875 C-66.79044133 10.80554211 -57.36866519 1.89984915 -42.9140625 -3.5078125 C-41.60888672 -4.04341797 -41.60888672 -4.04341797 -40.27734375 -4.58984375 C-27.22693749 -8.15180132 -11.85355719 -6.13334192 0 0 Z " fill="#000000" transform="translate(1054.9140625,150.5078125)"/>
<path d="M0 0 C61.41134752 0 61.41134752 0 78.83984375 15.65234375 C86.76689687 24.22485666 89.20604523 33.75700347 89.3125 45.0625 C89.35600586 46.56200195 89.35600586 46.56200195 89.40039062 48.09179688 C89.49043084 58.75117343 85.85292428 67.82511472 79 76 C61.23955135 92.67307424 39.44272142 92 16 92 C16 116.42 16 140.84 16 166 C10.72 166 5.44 166 0 166 C0 111.22 0 56.44 0 0 Z " fill="#050505" transform="translate(1019,571)"/>
<path d="M0 0 C62.78461538 0 62.78461538 0 79.3203125 16.28515625 C87.1588741 25.41086173 89.32228589 33.81864026 89.4375 45.625 C89.45296875 46.94914917 89.45296875 46.94914917 89.46875 48.30004883 C89.34009924 57.86576857 86.42717223 65.22733062 81 73 C80.4225 73.86625 79.845 74.7325 79.25 75.625 C69.73258173 85.67116373 56.1705187 89.60536024 43 92 C34.09 92 25.18 92 16 92 C16 116.42 16 140.84 16 166 C10.72 166 5.44 166 0 166 C0 111.22 0 56.44 0 0 Z " fill="#060606" transform="translate(1154,571)"/>
<path d="M0 0 C4.95 0 9.9 0 15 0 C23.32741562 21.24126794 31.60212423 42.50164833 39.75 63.8125 C40.11694977 64.7722171 40.48389954 65.7319342 40.86196899 66.72073364 C42.37937765 70.68961083 43.89673488 74.65850766 45.41395569 78.62745667 C49.68618062 89.80016623 53.97471129 100.96659979 58.26745605 112.13143921 C59.11303708 114.33089436 59.95834555 116.53045431 60.80334473 118.73013306 C61.99448813 121.830779 63.18656637 124.93106398 64.37890625 128.03125 C64.75812225 129.01852585 65.13733826 130.0058017 65.52804565 131.022995 C67.52230614 136.20436529 69.53983484 141.37537379 71.58935547 146.53515625 C72.00845688 147.59343628 72.42755829 148.65171631 72.85935974 149.74206543 C73.66191933 151.76507968 74.46873877 153.78641071 75.28041077 155.80578613 C75.63767746 156.7071228 75.99494415 157.60845947 76.36303711 158.53710938 C76.6800206 159.32903687 76.99700409 160.12096436 77.32359314 160.93688965 C78 163 78 163 78 166 C72.39 166 66.78 166 61 166 C53.62947223 146.89237128 46.26771733 127.78119353 38.99371338 108.63656616 C38.37307833 107.00431267 37.75129319 105.37249602 37.12835693 103.74111938 C36.26072699 101.46794756 35.39735084 99.1932067 34.53515625 96.91796875 C34.14719124 95.90505264 34.14719124 95.90505264 33.75138855 94.87167358 C32 90.22870099 32 90.22870099 32 88 C14.18 88.33 -3.64 88.66 -22 89 C-23.98 95.27 -25.96 101.54 -28 108 C-29.09532145 111.45606549 -30.191178 114.91193864 -31.2890625 118.3671875 C-31.84377594 120.1145751 -32.39846269 121.86197117 -32.953125 123.609375 C-33.79302697 126.25496787 -34.6331037 128.90050475 -35.47363281 131.54589844 C-38.43781635 140.87606785 -41.3943757 150.20716728 -44.25146484 159.57080078 C-44.81134678 161.38776924 -45.39876443 163.19629328 -46 165 C-51.61 165 -57.22 165 -63 165 C-62.34989442 161.74947211 -61.81141108 159.20677467 -60.67504883 156.20605469 C-60.26979477 155.12769096 -60.26979477 155.12769096 -59.85635376 154.02754211 C-59.55957733 153.25017197 -59.2628009 152.47280182 -58.95703125 151.671875 C-58.64140228 150.83629562 -58.32577332 150.00071625 -58.00057983 149.13981628 C-56.94201716 146.34162629 -55.87743146 143.54577184 -54.8125 140.75 C-54.05301052 138.74817786 -53.29365506 136.74630487 -52.53442383 134.74438477 C-45.10565325 115.18364829 -37.56534481 95.6656975 -30.01495361 76.1516571 C-29.5536908 74.95950089 -29.09242798 73.76734467 -28.6171875 72.5390625 C-28.15608582 71.3473494 -27.69498413 70.15563629 -27.21990967 68.92781067 C-23.88342085 60.2990242 -20.56639438 51.66294785 -17.2578125 43.0234375 C-16.33310592 40.61075205 -15.4083829 38.19807291 -14.48364258 35.78540039 C-13.15908925 32.32926622 -11.83551495 28.87277503 -10.51522827 25.41500854 C-9.31097975 22.26132743 -8.10310529 19.10905672 -6.89453125 15.95703125 C-6.36637314 14.56893753 -6.36637314 14.56893753 -5.82754517 13.15280151 C-5.49749481 12.29389313 -5.16744446 11.43498474 -4.82739258 10.55004883 C-4.54511307 9.81152176 -4.26283356 9.07299469 -3.97200012 8.31208801 C-2.78193095 5.48128109 -1.37329767 2.74659534 0 0 Z " fill="#050505" transform="translate(902,571)"/>
<path d="M0 0 C4.95 0 9.9 0 15 0 C19.7734642 11.23614635 24.16078572 22.61432711 28.5625 34 C29.40292817 36.17059871 30.24342441 38.34117107 31.08398438 40.51171875 C37.90878082 58.14376974 44.69820942 75.78943004 51.47192383 93.44116211 C55.77959584 104.66134604 60.11223583 115.87117137 64.484375 127.06640625 C65.37633516 129.35350273 66.26826275 131.6406119 67.16015625 133.92773438 C68.85515694 138.27367049 70.55668686 142.6169756 72.26171875 146.95898438 C73.02368163 148.91136308 73.78541353 150.86383194 74.546875 152.81640625 C74.89893005 153.70751602 75.25098511 154.59862579 75.6137085 155.51673889 C75.93035461 156.33178391 76.24700073 157.14682892 76.57324219 157.98657227 C76.85045105 158.69354752 77.12765991 159.40052277 77.41326904 160.12892151 C78 162 78 162 78 165 C72.39 165 66.78 165 61 165 C51.14852854 139.73543639 41.56387246 114.37511322 32 89 C14.18 88.67 -3.64 88.34 -22 88 C-23.485 94.435 -23.485 94.435 -25 101 C-25.73435017 103.47233723 -26.50620429 105.93435115 -27.33984375 108.375 C-27.54807266 108.99165527 -27.75630157 109.60831055 -27.97084045 110.24365234 C-28.62054673 112.16448343 -29.278489 114.08234395 -29.9375 116 C-33.10449861 125.29144115 -36.15436398 134.60425603 -39 144 C-39.86940091 146.81425557 -40.74660002 149.62604217 -41.625 152.4375 C-41.82867188 153.09169922 -42.03234375 153.74589844 -42.2421875 154.41992188 C-43.45277815 158.29614001 -44.71553239 162.14659718 -46 166 C-51.61 166 -57.22 166 -63 166 C-62.11886901 161.59434505 -60.86900564 157.65699328 -59.2890625 153.484375 C-59.00971359 152.73812866 -58.73036469 151.99188232 -58.44255066 151.22302246 C-57.50765107 148.73038127 -56.56659759 146.24011811 -55.625 143.75 C-54.95269726 141.96452608 -54.28041587 140.17904411 -53.6081543 138.39355469 C-47.64802245 122.59609197 -41.54907316 106.85270087 -35.42700195 91.11743164 C-31.13878702 80.09535001 -26.86494678 69.06809888 -22.625 58.02734375 C-22.17928146 56.86681488 -21.73356293 55.70628601 -21.27433777 54.5105896 C-19.13044872 48.92679604 -16.9886535 43.34220661 -14.84887695 37.75683594 C-10.0051831 25.12763629 -5.0625903 12.54309527 0 0 Z " fill="#050505" transform="translate(1316,571)"/>
<path d="M0 0 C4.95 0 9.9 0 15 0 C19.17507744 8.78423666 22.61821693 17.74579449 25.98471069 26.85974121 C27.64116251 31.34124955 29.3126038 35.81715678 30.984375 40.29296875 C31.32405807 41.20273468 31.66374115 42.11250061 32.01371765 43.04983521 C35.16683449 51.47806228 38.41000004 59.86949279 41.6875 68.25 C48.46234248 85.58058825 55.14309333 102.94669918 61.80932617 120.31933594 C62.61896003 122.42774122 63.42861148 124.53613975 64.23828125 126.64453125 C64.63003036 127.66626434 65.02177948 128.68799744 65.42539978 129.74069214 C67.45843312 135.03281719 69.51470373 140.31446885 71.60693359 145.58349609 C72.02621628 146.64227463 72.44549896 147.70105316 72.87748718 148.79191589 C73.67820018 150.80990129 74.48318535 152.82619834 75.29304504 154.8405304 C75.64904282 155.73837753 76.00504059 156.63622467 76.37182617 157.5612793 C76.68721848 158.34883102 77.00261078 159.13638275 77.32756042 159.94779968 C78 162 78 162 78 165 C72.39 165 66.78 165 61 165 C51.2411458 139.70078553 41.5752213 114.36940076 32 89 C14.18 88.67 -3.64 88.34 -22 88 C-23.485 94.435 -23.485 94.435 -25 101 C-25.97153691 103.75791123 -26.94367641 106.51623921 -27.9831543 109.24926758 C-28.99339395 111.98212956 -29.86643035 114.72224793 -30.70703125 117.51171875 C-32.5115538 123.43290007 -34.36252124 129.33804393 -36.234375 135.23828125 C-36.51946426 136.13702972 -36.80455353 137.0357782 -37.09828186 137.96176147 C-37.98175869 140.74547745 -38.8658642 143.52899326 -39.75 146.3125 C-40.35812498 148.2284991 -40.96619828 150.14451461 -41.57421875 152.06054688 C-43.04888404 156.70722038 -44.52424639 161.35367203 -46 166 C-51.61 166 -57.22 166 -63 166 C-62.31691169 162.58455847 -61.69933108 159.91419161 -60.49145508 156.74707031 C-60.02615387 155.51858871 -60.02615387 155.51858871 -59.55145264 154.26528931 C-59.21091858 153.37852509 -58.87038452 152.49176086 -58.51953125 151.578125 C-58.15941956 150.63133881 -57.79930786 149.68455261 -57.42828369 148.70907593 C-56.22703575 145.55450407 -55.01988352 142.40222814 -53.8125 139.25 C-52.95804122 137.01098536 -52.10379751 134.77188863 -51.24975586 132.53271484 C-42.62290554 109.93646441 -33.90062668 87.37687606 -25.17764282 64.81761169 C-21.84028322 56.18298517 -18.51477482 47.54386109 -15.1953125 38.90234375 C-14.72844528 37.68716064 -14.26157806 36.47197754 -13.78056335 35.2199707 C-11.97416319 30.51758434 -10.16801355 25.81510328 -8.36380005 21.11187744 C-7.14309114 17.9297389 -5.92124195 14.74804025 -4.69921875 11.56640625 C-4.15559189 10.14738258 -4.15559189 10.14738258 -3.60098267 8.69969177 C-3.27077118 7.84045609 -2.94055969 6.9812204 -2.6003418 6.09594727 C-2.31362106 5.34853775 -2.02690033 4.60112823 -1.73149109 3.83106995 C-1 2 -1 2 0 0 Z " fill="#050505" transform="translate(550,571)"/>
<path d="M0 0 C5.28 0 10.56 0 16 0 C16.39977051 1.06468506 16.79954102 2.12937012 17.21142578 3.22631836 C28.23802093 32.57482514 39.47034249 61.84092384 50.78010559 91.08132935 C55.48865479 103.25747433 60.17952432 115.44039235 64.86557007 127.62521362 C65.73846335 129.8949135 66.6115272 132.16454779 67.48477173 134.43411255 C68.69204094 137.57181821 69.89884204 140.70970346 71.10546875 143.84765625 C71.63362686 145.22026611 71.63362686 145.22026611 72.17245483 146.62060547 C72.81899935 148.3028483 73.46381373 149.98575757 74.10653687 151.66946411 C74.6993801 153.21585407 75.29960458 154.7594356 75.90737915 156.30001831 C77.09183317 159.34181037 78 161.70481554 78 165 C72.39 165 66.78 165 61 165 C60.43603516 163.5044458 59.87207031 162.0088916 59.29101562 160.46801758 C57.15920748 154.81505225 55.02693289 149.16226296 52.89453125 143.50952148 C51.97904329 141.08248469 51.06367482 138.65540281 50.1484375 136.22827148 C49.25922388 133.87019786 48.36982018 131.51219591 47.48022461 129.15426636 C46.59897377 126.8181513 45.71827534 124.48182777 44.83813477 122.14529419 C42.76556982 116.64908457 40.68039785 111.15856072 38.55859375 105.68115234 C37.99561584 104.22294319 37.99561584 104.22294319 37.42126465 102.73527527 C36.72186883 100.92689497 36.01840923 99.12007914 35.31018066 97.31513977 C35.00350464 96.52109238 34.69682861 95.72704498 34.38085938 94.90893555 C34.11253296 94.22188034 33.84420654 93.53482513 33.56774902 92.82695007 C33 91 33 91 33 88 C14.85 88 -3.3 88 -22 88 C-22.66 90.97 -23.32 93.94 -24 97 C-24.8607001 99.9279084 -25.74461482 102.83110265 -26.6796875 105.734375 C-26.93372345 106.53425842 -27.1877594 107.33414185 -27.44949341 108.15826416 C-28.25434648 110.6900224 -29.06446797 113.22005483 -29.875 115.75 C-30.67481369 118.25844052 -31.47351977 120.76723176 -32.27210999 123.27606201 C-32.79143375 124.90741523 -33.31115459 126.5386421 -33.83128357 128.16973877 C-35.93272477 134.76611644 -37.98093513 141.37793405 -40 148 C-40.89221813 150.91779443 -41.78796181 153.83445499 -42.6875 156.75 C-42.89955078 157.44609375 -43.11160156 158.1421875 -43.33007812 158.859375 C-44.88624912 163.88624912 -44.88624912 163.88624912 -46 165 C-48.69654854 165.07319621 -51.36691458 165.09242537 -54.0625 165.0625 C-54.82111328 165.05798828 -55.57972656 165.05347656 -56.36132812 165.04882812 C-58.24091871 165.0370068 -60.12046899 165.01907078 -62 165 C-61.37117216 160.19833746 -60.00655145 155.88883173 -58.2890625 151.38671875 C-57.87003914 150.26947166 -57.87003914 150.26947166 -57.44255066 149.12965393 C-56.50915 146.64671316 -55.56732364 144.16706685 -54.625 141.6875 C-53.95251504 139.90665219 -53.28023819 138.12572578 -52.6081543 136.34472656 C-46.24904116 119.5292267 -39.73916839 102.77183939 -33.22161865 86.01727295 C-26.68894861 69.22276744 -20.22107698 52.40358864 -13.76098633 35.58105469 C-9.20146636 23.70990183 -4.62170379 11.84709213 0 0 Z " fill="#040404" transform="translate(394,571)"/>
<path d="M0 0 C58.77835753 0 58.77835753 0 73.5 12.125 C81.65134042 20.27634042 84.56838633 28.1135253 84.75 39.5 C84.6304342 49.8282948 82.28083307 56.81793891 75.625 64.875 C74.75875 65.57625 73.8925 66.2775 73 67 C72.3915625 67.50015625 71.783125 68.0003125 71.15625 68.515625 C64.88775253 73.48220377 59.04890335 76.17868333 51 77 C51 77.66 51 78.32 51 79 C52.27875 79.20625 53.5575 79.4125 54.875 79.625 C67.13780807 82.42683095 76.7912966 91.54225937 83.39331055 101.94140625 C88.88395039 111.22449995 92.15581567 121.40823637 95.46289062 131.62036133 C100.23417078 147.57925223 100.23417078 147.57925223 111.453125 159.01953125 C112.71277727 159.62967532 113.97861464 160.22719759 115.25 160.8125 C115.8996875 161.12380859 116.549375 161.43511719 117.21875 161.75585938 C118.80721971 162.51505446 120.40291263 163.25910519 122 164 C122 164.33 122 164.66 122 165 C97.96487198 165.70005227 97.96487198 165.70005227 90.39453125 158.609375 C82.42823239 149.4157752 78.95198404 137.14574144 75.3125 125.7578125 C69.68544413 108.18945531 63.75158553 92.73526686 47 83.3125 C41.11266391 80.91949503 34.27854832 80.68684248 28 80 C28 78.35 28 76.7 28 75 C28.95519531 74.90203125 29.91039062 74.8040625 30.89453125 74.703125 C41.14501899 73.51762492 51.7174359 72.22215858 59.56640625 64.84375 C65.10887836 57.71555699 66.18039679 48.94432942 66.1875 40.25 C66.19974609 39.4765625 66.21199219 38.703125 66.22460938 37.90625 C66.2475921 28.77444813 64.3505205 20.85754808 58 14 C45.49230622 4.79103864 31.26375082 5.72684528 16 5 C16 57.8 16 110.6 16 165 C10.72 165 5.44 165 0 165 C0 110.55 0 56.1 0 0 Z " fill="#020202" transform="translate(1433,571)"/>
<path d="M0 0 C6.13612048 -1.66186596 12.02215873 -2.70474381 18 0 C24.2270397 6.08696314 27.96977444 14.5674853 31.97607422 22.22314453 C34.91069916 27.77937965 38.23861508 33.09382972 41.54379272 38.43457031 C43.33596982 41.34017454 45.10040715 44.26250391 46.8671875 47.18359375 C50.82187782 53.70952923 54.78412884 60.23085413 58.75 66.75 C59.31025879 67.67192139 59.87051758 68.59384277 60.44775391 69.54370117 C61.48132335 71.24238438 62.51744479 72.93951861 63.55664062 74.63476562 C64.52443687 76.22069425 65.48138789 77.81328871 66.42773438 79.41210938 C66.86923828 80.14751953 67.31074219 80.88292969 67.765625 81.640625 C68.15008789 82.29063477 68.53455078 82.94064453 68.93066406 83.61035156 C69.28354492 84.06893555 69.63642578 84.52751953 70 85 C70.66 85 71.32 85 72 85 C75.72110635 77.42662299 79.44065624 69.85248233 83.15907669 62.27778625 C83.7592898 61.05514354 84.35953726 59.83251769 84.95981979 58.60990906 C92.99612385 42.24212259 101.01620392 25.8671183 108.89672852 9.42358398 C109.70775024 7.73664429 109.70775024 7.73664429 110.53515625 6.015625 C110.992854 5.05946289 111.45055176 4.10330078 111.92211914 3.11816406 C113 1 113 1 114 0 C115.34267413 -0.08631874 116.68974322 -0.10706473 118.03515625 -0.09765625 C118.84404297 -0.09443359 119.65292969 -0.09121094 120.48632812 -0.08789062 C121.33646484 -0.07951172 122.18660156 -0.07113281 123.0625 -0.0625 C123.91650391 -0.05798828 124.77050781 -0.05347656 125.65039062 -0.04882812 C127.76695663 -0.03700373 129.88348685 -0.01906769 132 0 C125.12845429 12.43207283 117.61005496 24.46741797 110.13769531 36.54345703 C106.70848743 42.0863493 103.29162157 47.63684376 99.875 53.1875 C98.89345947 54.7813855 98.89345947 54.7813855 97.89208984 56.4074707 C92.67819594 64.88085589 87.49879022 73.37494378 82.33935547 81.8815918 C81.79682129 82.77531494 81.25428711 83.66903809 80.6953125 84.58984375 C79.9839917 85.76341431 79.9839917 85.76341431 79.25830078 86.96069336 C78.20792057 88.66302667 77.10957196 90.33564206 76 92 C75.66912177 95.29781034 75.66912177 95.29781034 75.68115234 99.13354492 C75.67110672 99.85574722 75.6610611 100.57794952 75.65071106 101.32203674 C75.61983061 103.70817268 75.60283066 106.09419617 75.5859375 108.48046875 C75.56722974 110.13528921 75.54765662 111.7901001 75.5272522 113.44490051 C75.47588351 117.79973713 75.43628322 122.15460469 75.39910889 126.50958252 C75.35909888 130.95373214 75.30799286 135.39775251 75.2578125 139.84179688 C75.16099707 148.56111624 75.07763581 157.28048874 75 166 C69.39 166 63.78 166 58 166 C58.05349609 163.95506348 58.10699219 161.91012695 58.16210938 159.80322266 C58.32962188 152.93050976 58.40456229 146.05881482 58.43784332 139.18421364 C58.46065017 135.02833944 58.51148285 130.87736225 58.63427734 126.72314453 C59.27878022 104.02261039 57.19917727 89.28158093 43.12046814 70.87876892 C39.38690421 65.8100449 36.23653254 60.39543605 33 55 C31.6811712 52.8442929 30.35428665 50.69370384 29.02734375 48.54296875 C28.36847168 47.47224121 27.70959961 46.40151367 27.03076172 45.29833984 C24.93992435 41.90242582 22.84711609 38.50773304 20.75390625 35.11328125 C8.74630887 15.63761991 8.74630887 15.63761991 3.5 6.9375 C3.13205322 6.33010986 2.76410645 5.72271973 2.38500977 5.09692383 C0 1.11992451 0 1.11992451 0 0 Z " fill="#050505" transform="translate(630,571)"/>
<path d="M0 0 C23.76 0 47.52 0 72 0 C72 3.63 72 7.26 72 11 C60.37132042 10.63374238 48.97647695 9.13149123 37.4699707 7.45996094 C35.68079224 7.20134277 35.68079224 7.20134277 33.85546875 6.9375 C32.79996826 6.78152344 31.74446777 6.62554688 30.65698242 6.46484375 C25.78617424 5.84570904 20.88983565 5.44453051 16 5 C16 28.76 16 52.52 16 77 C27.88 76.01 27.88 76.01 40 75 C45.50733988 74.74395701 50.99168814 74.51357388 56.5 74.375 C57.83595475 74.33653181 59.17189246 74.29746755 60.5078125 74.2578125 C63.67176222 74.16610381 66.83573869 74.08008316 70 74 C70 77.63 70 81.26 70 85 C51.97663923 84.27448336 34.00991037 83.1256194 16 82 C16 108.07 16 134.14 16 161 C30.29439341 159.21320082 44.54056337 157.4046194 58.77929688 155.27539062 C59.91818359 155.10845703 61.05707031 154.94152344 62.23046875 154.76953125 C63.22457764 154.62104736 64.21868652 154.47256348 65.24291992 154.31958008 C68 154 68 154 73 154 C73 157.96 73 161.92 73 166 C48.91 166 24.82 166 0 166 C0 111.22 0 56.44 0 0 Z " fill="#050505" transform="translate(1585,571)"/>
<path d="M0 0 C35.8 0 35.8 0 47 10 C54.43647476 18.6432711 56.50523228 27.83694625 56.3125 39 C56.31572266 39.93328125 56.31894531 40.8665625 56.32226562 41.828125 C56.23592728 53.06780768 54.06492235 61.1137389 46.6875 69.6875 C32.64743708 81.76848437 18.89809411 80 0 80 C0 53.6 0 27.2 0 0 Z " fill="#FDFDFD" transform="translate(1035,577)"/>
<path d="M0 0 C36.21487603 0 36.21487603 0 47 10 C54.52233983 19.28043458 56.38772676 28.24928304 56.3125 39.9375 C56.30730347 41.25355225 56.30730347 41.25355225 56.30200195 42.59619141 C56.19746624 48.80942459 55.54089047 54.26822383 53 60 C52.38125 61.5778125 52.38125 61.5778125 51.75 63.1875 C45.6227414 73.03487989 36.85552991 76.89842003 26 80 C17.42 80 8.84 80 0 80 C0 53.6 0 27.2 0 0 Z " fill="#FEFEFE" transform="translate(1170,577)"/>
<path d="M0 0 C5.28 0 10.56 0 16 0 C16 53.13 16 106.26 16 161 C37.42374371 158.15541999 37.42374371 158.15541999 58.6171875 154.515625 C62.12902996 153.98033262 65.45319027 153.90928875 69 154 C69 157.63 69 161.26 69 165 C46.23 165 23.46 165 0 165 C0 110.55 0 56.1 0 0 Z " fill="#030303" transform="translate(1708,571)"/>
<path d="M0 0 C2.15478516 -0.34057617 2.15478516 -0.34057617 4.7890625 -0.29296875 C5.73007812 -0.28330078 6.67109375 -0.27363281 7.640625 -0.26367188 C8.62546875 -0.23853516 9.6103125 -0.21339844 10.625 -0.1875 C12.11386719 -0.16719727 12.11386719 -0.16719727 13.6328125 -0.14648438 C16.08908072 -0.11105743 18.54427285 -0.06166196 21 0 C18.3026637 3.3219339 15.7564931 6.40743518 12.4375 9.125 C8.76812814 12.24639383 5.37962188 15.5733876 2 19 C-1.82954955 22.87758944 -5.72054406 26.56246245 -9.875 30.09375 C-12.69393932 32.62250439 -15.33938837 35.30646001 -18 38 C-21.82988013 41.87727963 -25.72051302 45.56243606 -29.875 49.09375 C-33.2423864 52.11449368 -36.38048678 55.36018895 -39.55834961 58.57788086 C-43.03497106 62.08110487 -46.60728156 65.41002506 -50.37890625 68.59765625 C-51.99776114 69.99806325 -53.50518331 71.46883518 -55 73 C-53.53719693 76.30623348 -51.69091617 78.65593898 -49.25 81.3125 C-48.44820312 82.18777344 -47.64640625 83.06304688 -46.8203125 83.96484375 C-45.88116837 84.97745373 -44.94099228 85.98910723 -44 87 C-43.46729492 87.57250488 -42.93458984 88.14500977 -42.38574219 88.73486328 C-40.02737147 91.26670317 -37.6665547 93.79622929 -35.30249023 96.32275391 C-29.82539792 102.17648384 -24.40679889 108.08131482 -19 114 C-17.18834256 115.97993912 -15.37565154 117.95892908 -13.5625 119.9375 C-13.11036133 120.43088867 -12.65822266 120.92427734 -12.19238281 121.43261719 C-6.81012711 127.30243746 -1.40476435 133.15091334 4 139 C7.50024828 142.78800151 10.99879278 146.57755509 14.49462891 150.36962891 C16.06023681 152.06523864 17.62962106 153.75730233 19.19921875 155.44921875 C20.2162332 156.54939841 21.23316344 157.64965592 22.25 158.75 C22.72832275 159.26377197 23.20664551 159.77754395 23.69946289 160.30688477 C27 163.88659919 27 163.88659919 27 165 C23.4803053 165.23413602 19.96262416 165.37497976 16.4375 165.5 C15.44685547 165.56703125 14.45621094 165.6340625 13.43554688 165.703125 C6.16473179 165.89636925 6.16473179 165.89636925 2.92529297 163.40332031 C1.13586196 161.34942446 -0.43350267 159.22709893 -2 157 C-2.95442914 155.91479912 -3.92736415 154.84546648 -4.921875 153.796875 C-5.38408447 153.29792725 -5.84629395 152.79897949 -6.32250977 152.28491211 C-6.79358154 151.77839111 -7.26465332 151.27187012 -7.75 150.75 C-8.79575201 149.62125964 -9.84132086 148.49234958 -10.88671875 147.36328125 C-11.66668213 146.52144287 -11.66668213 146.52144287 -12.46240234 145.66259766 C-16.20102116 141.6200454 -19.91407034 137.55394696 -23.63232422 133.49267578 C-25.02579152 131.97185124 -26.42087751 130.45252676 -27.81640625 128.93359375 C-32.04523476 124.32926052 -36.26403086 119.71723405 -40.4375 115.0625 C-43.92448372 111.17629095 -47.45345217 107.33169741 -51 103.5 C-64.92413988 88.44782854 -64.92413988 88.44782854 -71 81 C-67.5854014 76.18454043 -64.01497125 71.87734084 -59.77734375 67.76953125 C-57.34460863 65.34748947 -55.1242147 62.76618609 -52.8828125 60.16796875 C-50.7842468 57.75157049 -48.645603 55.37470976 -46.5 53 C-43.82951656 50.04130249 -41.17701942 47.07073528 -38.5625 44.0625 C-34.91062947 39.86835635 -31.15733816 35.76905708 -27.41015625 31.66015625 C-24.83006864 28.81244205 -22.29798144 25.92755982 -19.77734375 23.02734375 C-17.70640513 20.66510827 -15.60487152 18.33204147 -13.5 16 C-10.67455334 12.86544464 -7.85495597 9.72650936 -5.0625 6.5625 C-4.51722656 5.94503906 -3.97195313 5.32757812 -3.41015625 4.69140625 C-1.81877961 2.84382494 -1.81877961 2.84382494 0 0 Z " fill="#040404" transform="translate(292,571)"/>
<path d="M0 0 C4.95 0 9.9 0 15 0 C15 54.45 15 108.9 15 165 C10.05 165 5.1 165 0 165 C0 110.55 0 56.1 0 0 Z " fill="#000000" transform="translate(197,571)"/>
<path d="M0 0 C2.6299744 2.31080686 3.7611869 4.39988976 4.98950195 7.66064453 C5.53070427 9.0795549 5.53070427 9.0795549 6.08283997 10.52713013 C6.46413559 11.55200531 6.84543121 12.57688049 7.23828125 13.6328125 C7.64153122 14.69805145 8.04478119 15.76329041 8.46025085 16.86080933 C9.75194973 20.2793896 11.03212717 23.70216393 12.3125 27.125 C13.16270739 29.37656807 14.01361153 31.62787318 14.86523438 33.87890625 C15.69853347 36.08830913 16.53123328 38.29793815 17.36328125 40.5078125 C17.73850418 41.50434845 18.11372711 42.5008844 18.50032043 43.52761841 C21.78635125 52.31446956 24.87589023 61.14835564 28 70 C11.5 70 -5 70 -22 70 C-20.04228847 62.16915387 -18.01365102 54.55135301 -15.53125 46.8984375 C-15.20966919 45.89591949 -14.88808838 44.89340149 -14.5567627 43.86050415 C-13.54145085 40.69749544 -12.5209711 37.536186 -11.5 34.375 C-10.4800552 31.20635213 -9.46121642 28.03735242 -8.4432373 24.86807251 C-7.81349848 22.90862867 -7.18248378 20.94959422 -6.54992676 18.99105835 C-4.82946802 13.65027377 -3.18328733 8.29677942 -1.63195801 2.90420532 C-1 1 -1 1 0 0 Z " fill="#FAFAFA" transform="translate(552,583)"/>
<path d="M0 0 C0.66 0 1.32 0 2 0 C2.43231934 1.13614746 2.86463867 2.27229492 3.31005859 3.44287109 C4.96259799 7.78541105 6.61573838 12.12772202 8.26904297 16.4699707 C9.00421914 18.4010659 9.73924606 20.33221792 10.47412109 22.26342773 C15.85190303 36.39700814 15.85190303 36.39700814 21.2890625 50.5078125 C21.98829834 52.31306396 21.98829834 52.31306396 22.70166016 54.15478516 C23.54997362 56.34049239 24.40109089 58.52511404 25.25537109 60.70849609 C25.62484863 61.66062988 25.99432617 62.61276367 26.375 63.59375 C26.69210937 64.40521484 27.00921875 65.21667969 27.3359375 66.05273438 C28 68 28 68 28 70 C11.5 70 -5 70 -22 70 C-16.40391116 50.97329795 -16.40391116 50.97329795 -13.5625 42.75 C-10.80396351 34.63861616 -8.37256401 26.47075876 -6.07202148 18.21899414 C-4.33407942 12.03168352 -2.37889156 5.97521585 0 0 Z " fill="#FAFAFA" transform="translate(396,583)"/>
<path d="M0 0 C2.4711264 2.20457006 3.6412662 4.09226761 4.79003906 7.18579102 C5.10757141 8.02839981 5.42510376 8.87100861 5.7522583 9.739151 C6.25387482 11.10770485 6.25387482 11.10770485 6.765625 12.50390625 C7.12211121 13.4557933 7.47859741 14.40768036 7.84588623 15.38841248 C8.98831387 18.44362591 10.11947945 21.50286304 11.25 24.5625 C12.36485086 27.55748071 13.48201987 30.55158757 14.59973145 33.54550171 C15.33358455 35.51309918 16.06560892 37.48137972 16.79577637 39.4503479 C18.52289816 44.09814244 20.27579005 48.73163654 22.10742188 53.33935547 C22.59912872 54.57878151 22.59912872 54.57878151 23.10076904 55.84324646 C23.71315662 57.37831419 24.33131838 58.91109627 24.95635986 60.4410553 C26.33779265 63.90268319 27 66.21279123 27 70 C10.83 70 -5.34 70 -22 70 C-20.04228847 62.16915387 -18.01365102 54.55135301 -15.53125 46.8984375 C-15.20966919 45.89591949 -14.88808838 44.89340149 -14.5567627 43.86050415 C-13.54145085 40.69749544 -12.5209711 37.536186 -11.5 34.375 C-10.4800552 31.20635213 -9.46121642 28.03735242 -8.4432373 24.86807251 C-7.81349848 22.90862867 -7.18248378 20.94959422 -6.54992676 18.99105835 C-4.82946802 13.65027377 -3.18328733 8.29677942 -1.63195801 2.90420532 C-1 1 -1 1 0 0 Z " fill="#FBFBFB" transform="translate(1318,583)"/>
<path d="M0 0 C0.99 0.33 1.98 0.66 3 1 C4.22094806 3.64172239 5.24763525 6.20084354 6.22265625 8.93359375 C6.52468964 9.7506076 6.82672302 10.56762146 7.13790894 11.40939331 C8.12337954 14.08166514 9.0929389 16.75941951 10.0625 19.4375 C11.06949911 22.18222334 12.08018141 24.9255733 13.09089661 27.66893005 C13.76530737 29.50073905 14.43830928 31.33306735 15.10990906 33.16590881 C18.35023516 41.99986075 21.74578493 50.76884942 25.20532227 59.51928711 C25.57971436 60.47843018 25.95410645 61.43757324 26.33984375 62.42578125 C26.66331787 63.24473877 26.98679199 64.06369629 27.32006836 64.9074707 C28 67 28 67 28 70 C11.83 70 -4.34 70 -21 70 C-18.781893 58.90946502 -18.781893 58.90946502 -16.75 53.6875 C-14.52767847 47.6937681 -12.71116015 41.65808775 -11 35.5 C-8.9780759 28.23701021 -6.72332373 21.17967302 -4.1015625 14.109375 C-2.46073251 9.47781233 -1.19568713 4.76330646 0 0 Z " fill="#FBFBFB" transform="translate(903,583)"/>
<path d="M0 0 C0.66 0.33 1.32 0.66 2 1 C1 4 1 4 -1.9375 5.75 C-3.4534375 6.36875 -3.4534375 6.36875 -5 7 C-5.66 6.67 -6.32 6.34 -7 6 C-4.69 4.02 -2.38 2.04 0 0 Z " fill="#E5E5E5" transform="translate(999,299)"/>
</svg>
